<svg width="24" height="24" viewBox="0 0 24 24" fill="none" xmlns="http://www.w3.org/2000/svg">
<path fill-rule="evenodd" clip-rule="evenodd" d="M12.0361 2.00006C8.18305 1.96506 5.03605 5.00006 5.00005 8.78106C4.96505 12.5631 8.05505 15.6531 11.9081 15.6881H14.3281V13.1221H12.0361C9.62905 13.1501 7.65605 11.2561 7.62805 8.89206C7.59905 6.53006 9.52905 4.59406 11.936 4.56606H12.0361C14.4431 4.56606 16.394 6.48106 16.401 8.84406V15.1491C16.401 17.4911 14.4571 19.3991 12.0781 19.4281C10.9429 19.42 9.85534 18.9711 9.04505 18.1761L7.19405 19.9941C8.48565 21.2628 10.2186 21.9818 12.0291 22.0001H12.1211C15.9241 21.9441 18.9791 18.9171 19.0001 15.1841V8.68406C18.9071 4.96306 15.8171 2.00006 12.0361 2.00006Z" fill="white"/>
</svg>
