<svg width="24" height="24" viewBox="0 0 24 24" fill="none" xmlns="http://www.w3.org/2000/svg">
<g clip-path="url(#clip0_35299_18137)">
<path fill-rule="evenodd" clip-rule="evenodd" d="M1.05207 16.916L10.5911 19.468C10.5782 20.1463 10.5983 20.8247 10.6511 21.501L16.6071 23.094C14.8405 23.8232 12.9254 24.1197 11.0211 23.959L10.8411 23.943L10.7971 23.939L10.7131 23.93L10.6191 23.92C10.5667 23.9137 10.5144 23.907 10.4621 23.9L10.3551 23.886L10.2451 23.87C10.1382 23.8545 10.0315 23.8375 9.92507 23.819L9.88307 23.811L9.80807 23.798L9.70107 23.778L9.63107 23.763L9.53807 23.744L9.46307 23.728L9.36807 23.708L9.27107 23.685L9.17707 23.663L9.10907 23.646L9.02107 23.624L8.93107 23.6L8.83607 23.575L8.75407 23.552L8.64507 23.522L8.58307 23.502L8.49907 23.477L8.40607 23.449L8.30107 23.415L8.24307 23.396L8.16307 23.37L8.07307 23.339L8.00707 23.315C7.99239 23.3101 7.97772 23.3051 7.96307 23.3L7.89507 23.275L7.79407 23.238L7.73707 23.216L7.65707 23.186L7.57007 23.151L7.48207 23.116L7.40307 23.084L7.30807 23.044L7.24507 23.016L7.18207 22.989C7.16838 22.9831 7.15472 22.9771 7.14107 22.971L7.07507 22.941L6.97207 22.894L6.92007 22.87L6.82407 22.824L6.76207 22.794L6.67807 22.754L6.59207 22.71L6.49907 22.663L6.44707 22.636L6.34407 22.581L6.28707 22.551L6.22907 22.519C6.21371 22.5104 6.19837 22.5018 6.18307 22.493L6.08907 22.44L6.02907 22.406L5.97807 22.376L5.90607 22.335L5.82407 22.285L5.73107 22.229L5.67907 22.197L5.59507 22.144L5.53407 22.105L5.45507 22.055L5.38507 22.008L5.33207 21.973C5.31402 21.9611 5.29602 21.9491 5.27807 21.937L5.23407 21.907L5.19007 21.877C5.1767 21.8677 5.16337 21.8584 5.15007 21.849L5.09307 21.809L5.01707 21.755L4.94807 21.705L4.87407 21.651L4.81807 21.609L4.74207 21.552L4.66607 21.493L4.58007 21.426L4.53507 21.391L4.47107 21.339L4.39707 21.279L4.30807 21.206L4.26207 21.167L4.21607 21.128C4.20169 21.1157 4.18736 21.1034 4.17307 21.091L4.12807 21.051L4.06707 20.998L3.99707 20.936L3.92907 20.876L3.86707 20.818L3.80007 20.756L3.74707 20.706L3.65907 20.622C3.62591 20.5899 3.59291 20.5575 3.56007 20.525L3.53107 20.497L3.49007 20.455L3.42107 20.385L3.37107 20.334L3.32107 20.281C3.26395 20.2224 3.20794 20.1627 3.15307 20.102L3.07307 20.014L3.01107 19.944L2.94007 19.864L2.89807 19.815L2.84507 19.753L2.78707 19.685L2.74107 19.629C2.73204 19.618 2.72304 19.6071 2.71407 19.596L2.66907 19.541L2.60307 19.459L2.56207 19.407L2.51207 19.343L2.49207 19.318C1.91989 18.5764 1.4366 17.7702 1.05207 16.916ZM0.0320744 11.122L11.3851 14.159C11.195 14.821 11.0385 15.4922 10.9161 16.17L21.7331 19.064C21.1957 19.7998 20.5767 20.4724 19.8881 21.069L0.657074 15.923L0.641074 15.877L0.606074 15.773C0.589065 15.7221 0.572398 15.6711 0.556074 15.62L0.549074 15.597C0.472103 15.3523 0.403067 15.1052 0.342074 14.856L0.312074 14.73L0.294074 14.65L0.273074 14.553L0.255074 14.472L0.237074 14.382L0.220074 14.298L0.202074 14.204C0.176074 14.063 0.152074 13.921 0.131074 13.778L0.114074 13.66L0.103074 13.577L0.0900744 13.475C0.0833789 13.4214 0.0770454 13.3677 0.0710744 13.314L0.0660743 13.267C-0.00863947 12.5544 -0.0200174 11.8366 0.0320744 11.122ZM1.62507 5.97202L13.5731 9.16802C13.2051 9.77302 12.8681 10.399 12.5631 11.043L23.8581 14.065C23.7161 14.885 23.4901 15.677 23.1901 16.43L11.6401 13.34L0.124074 10.26L0.139074 10.16L0.147074 10.111L0.157074 10.044L0.172074 9.95702L0.190074 9.85902C0.216074 9.71102 0.246074 9.56402 0.278074 9.41702L0.306074 9.29302L0.326074 9.20802L0.350074 9.11102C0.372074 9.02102 0.395074 8.93102 0.420074 8.84302L0.448074 8.74102L0.471074 8.65802L0.501074 8.55802L0.526074 8.47602L0.556074 8.38002L0.582074 8.29802L0.613074 8.20302C0.872029 7.42625 1.21049 6.67828 1.62307 5.97102L1.62507 5.97202ZM6.06707 1.57202L17.3521 4.59002C16.7566 5.13053 16.1929 5.70516 15.6641 6.31102L23.4871 8.40402C23.7541 9.25602 23.9291 10.148 24.0001 11.069L2.10607 5.21302L2.15107 5.14802L2.17807 5.10802L2.21807 5.05302L2.26407 4.98802L2.31907 4.91202L2.37307 4.84002L2.43707 4.75402L2.48707 4.68902L2.54407 4.61602L2.59907 4.54602L2.65907 4.47202L2.71407 4.40302L2.77907 4.32602L2.83307 4.26002L2.89907 4.18302L2.95207 4.12302L3.02407 4.04102L3.07707 3.98102L3.14407 3.90702L3.19807 3.84902L3.27107 3.77102L3.32907 3.71102L3.39207 3.64402L3.56007 3.47402L3.66007 3.37602L3.71907 3.32002L3.79507 3.24902C4.48426 2.60315 5.2468 2.04031 6.06707 1.57202ZM12.0171 2.34375e-05H12.1141L12.1961 0.00102344L12.2651 0.00202344L12.3191 0.00402344L12.3871 0.00602344L12.4331 0.00702344L12.5091 0.0100234L12.5561 0.0120234L12.6161 0.0150234L12.6701 0.0170234L12.7571 0.0220234L12.8621 0.0290234L13.0061 0.0400234L13.0941 0.0470234L13.1381 0.0510234L13.2151 0.0590234L13.2971 0.0670234L13.3441 0.0720234L13.4461 0.0840234L13.4961 0.0900234L13.6041 0.104023L13.6851 0.114023L13.7271 0.120023L13.7921 0.130023L13.9991 0.162023L14.0691 0.174023L14.1341 0.185023L14.2741 0.211023L14.3661 0.229023L14.4761 0.251023L14.5221 0.261023L14.5971 0.277023L14.6381 0.287023L14.7001 0.300023L14.7421 0.310023L14.8071 0.325023L14.8561 0.337023L14.9271 0.354023L15.0231 0.378023L15.1351 0.408023L15.2481 0.438023L15.3611 0.470023L15.4111 0.485023L15.4811 0.505023L15.5591 0.529023L15.6321 0.552023L15.6821 0.568023L15.7321 0.584023L15.8081 0.609023L15.9071 0.642023L16.0091 0.678023L16.0571 0.695023L16.1211 0.718023L16.2141 0.752023L16.3241 0.793023L16.4401 0.838023L16.5401 0.878023L16.5871 0.898023L16.6471 0.922023L16.6881 0.940023L16.7511 0.966023L16.7911 0.984023L16.8481 1.00902L16.9581 1.05702L17.0581 1.10302L17.1321 1.13802L17.2071 1.17402L17.2671 1.20202L17.3591 1.24802L17.4501 1.29302L17.5521 1.34502L17.6051 1.37302L17.6541 1.39902L17.7001 1.42302L17.7601 1.45602L17.8011 1.47802L17.8531 1.50702L17.9411 1.55702L18.0471 1.61702L18.1341 1.66802L18.1911 1.70202L18.2441 1.73402L18.3401 1.79302L18.4281 1.84802L18.5261 1.91002L18.5621 1.93402L18.6261 1.97502L18.7101 2.03102L18.7501 2.05802L18.8121 2.10002L18.8741 2.14302L18.8971 2.16002C18.9511 2.19702 19.0051 2.23502 19.0581 2.27402L19.1411 2.33402L19.2061 2.38202L19.2621 2.42502L19.3481 2.49002L19.4301 2.55402L19.4701 2.58402L19.5201 2.62502L19.6061 2.69402L19.6851 2.75902L19.7701 2.83002C20.4821 3.43002 21.1231 4.11302 21.6791 4.86102L7.22207 0.994023L7.28407 0.967023L7.34907 0.939023L7.43007 0.905023L7.51607 0.870023C7.62907 0.825023 7.74307 0.780023 7.85707 0.739023L7.95307 0.704023L8.04607 0.671023L8.13007 0.641023L8.22607 0.610023C8.31307 0.580023 8.40207 0.552023 8.49007 0.525023L8.58107 0.498023L8.66707 0.473023L8.76907 0.443023L8.85407 0.420023L8.95407 0.394023L9.04007 0.370023L9.13007 0.347023L9.22107 0.325023L9.31607 0.303023L9.40607 0.283023L9.50407 0.262023L9.59507 0.242023L9.69007 0.224023L9.78207 0.206023L9.88207 0.188023L9.97307 0.172023L10.0711 0.155023L10.1631 0.141023L10.2601 0.126023L10.3521 0.113023L10.4541 0.100023L10.5451 0.0880234L10.6501 0.0760234L10.7401 0.0660234L10.8451 0.0560234C10.9381 0.0460234 11.0311 0.0380234 11.1251 0.0320234L11.2311 0.0240234L11.3211 0.0190234L11.4311 0.0130234L11.5241 0.00902344L11.6241 0.00502344L11.7211 0.00302344L11.8201 0.00102344L12.0171 -0.000976562V2.34375e-05Z" fill="white"/>
</g>
<defs>
<clipPath id="clip0_35299_18137">
<rect width="24" height="24" fill="white"/>
</clipPath>
</defs>
</svg>
