<svg width="24" height="24" viewBox="0 0 24 24" fill="none" xmlns="http://www.w3.org/2000/svg">
<path fill-rule="evenodd" clip-rule="evenodd" d="M12.604 1.34004C12.997 2.03004 13.388 2.72204 13.778 3.41504C13.7938 3.44276 13.8166 3.46579 13.8442 3.48178C13.8718 3.49776 13.9031 3.50614 13.935 3.50604H19.487C19.661 3.50604 19.809 3.61604 19.933 3.83304L21.387 6.40304C21.577 6.74004 21.627 6.88104 21.411 7.24004C21.151 7.67004 20.898 8.10404 20.651 8.54004L20.284 9.19804C20.178 9.39404 20.061 9.47804 20.244 9.71004L22.896 14.347C23.068 14.648 23.007 14.841 22.853 15.117C22.416 15.902 21.971 16.681 21.518 17.457C21.359 17.729 21.166 17.832 20.838 17.827C20.061 17.811 19.286 17.817 18.511 17.843C18.4944 17.8439 18.4783 17.8489 18.4641 17.8577C18.4499 17.8664 18.4382 17.8786 18.43 17.893C17.5358 19.4773 16.6342 21.0573 15.725 22.633C15.556 22.926 15.345 22.996 15 22.997C14.003 23 12.998 23.001 11.983 22.999C11.8885 22.9988 11.7957 22.9736 11.7141 22.926C11.6325 22.8784 11.5648 22.8101 11.518 22.728L10.183 20.405C10.1752 20.3898 10.1633 20.3772 10.1486 20.3685C10.1339 20.3598 10.1171 20.3555 10.1 20.356H4.982C4.697 20.386 4.429 20.355 4.177 20.264L2.574 17.494C2.52659 17.412 2.50146 17.319 2.50111 17.2243C2.50076 17.1296 2.5252 17.0364 2.572 16.954L3.779 14.834C3.79619 14.8041 3.80524 14.7701 3.80524 14.7355C3.80524 14.701 3.79619 14.667 3.779 14.637C3.15027 13.5485 2.52527 12.4578 1.904 11.365L1.114 9.97004C0.954 9.66004 0.941 9.47404 1.209 9.00504C1.674 8.19204 2.136 7.38004 2.596 6.56904C2.728 6.33504 2.9 6.23504 3.18 6.23404C4.043 6.23041 4.906 6.23007 5.769 6.23304C5.7908 6.23287 5.81217 6.22696 5.83095 6.2159C5.84974 6.20484 5.86528 6.18902 5.876 6.17004L8.682 1.27504C8.72452 1.20058 8.78592 1.13863 8.86 1.09544C8.93409 1.05226 9.01825 1.02935 9.104 1.02904C9.628 1.02804 10.157 1.02904 10.687 1.02304L11.704 1.00004C12.045 0.997043 12.428 1.03204 12.604 1.34004ZM9.172 1.74304C9.16146 1.74304 9.15111 1.74581 9.14198 1.75107C9.13285 1.75634 9.12527 1.76392 9.12 1.77304L6.254 6.78804C6.24024 6.81168 6.22054 6.8313 6.19687 6.84499C6.17319 6.85867 6.14635 6.86593 6.119 6.86604H3.253C3.197 6.86604 3.183 6.89104 3.212 6.94004L9.022 17.096C9.047 17.138 9.035 17.158 8.988 17.159L6.193 17.174C6.15214 17.1727 6.11172 17.1828 6.07635 17.2033C6.04099 17.2239 6.01211 17.2539 5.993 17.29L4.673 19.6C4.629 19.678 4.652 19.718 4.741 19.718L10.457 19.726C10.503 19.726 10.537 19.746 10.561 19.787L11.964 22.241C12.01 22.322 12.056 22.323 12.103 22.241L17.109 13.481L17.892 12.099C17.8968 12.0905 17.9037 12.0834 17.9122 12.0785C17.9206 12.0735 17.9302 12.0709 17.94 12.0709C17.9498 12.0709 17.9594 12.0735 17.9678 12.0785C17.9763 12.0834 17.9832 12.0905 17.988 12.099L19.412 14.629C19.4227 14.648 19.4382 14.6637 19.4571 14.6746C19.4759 14.6855 19.4973 14.6912 19.519 14.691L22.282 14.671C22.2891 14.6711 22.2961 14.6693 22.3022 14.6658C22.3084 14.6623 22.3135 14.6572 22.317 14.651C22.3204 14.6449 22.3222 14.638 22.3222 14.631C22.3222 14.624 22.3204 14.6172 22.317 14.611L19.417 9.52504C19.4066 9.50804 19.401 9.48849 19.401 9.46854C19.401 9.4486 19.4066 9.42904 19.417 9.41204L19.71 8.90504L20.83 6.92804C20.854 6.88704 20.842 6.86604 20.795 6.86604H9.2C9.141 6.86604 9.127 6.84004 9.157 6.78904L10.591 4.28404C10.6017 4.26697 10.6074 4.24721 10.6074 4.22704C10.6074 4.20687 10.6017 4.18711 10.591 4.17004L9.225 1.77404C9.21978 1.76458 9.21209 1.75671 9.20277 1.75125C9.19344 1.74579 9.18281 1.74296 9.172 1.74304ZM15.462 9.76304C15.508 9.76304 15.52 9.78304 15.496 9.82304L14.664 11.288L12.051 15.873C12.0461 15.882 12.0388 15.8894 12.03 15.8945C12.0212 15.8996 12.0112 15.9022 12.001 15.902C11.9909 15.902 11.9809 15.8993 11.9721 15.8942C11.9634 15.8891 11.9561 15.8818 11.951 15.873L8.498 9.84104C8.478 9.80704 8.488 9.78904 8.526 9.78704L8.742 9.77504L15.464 9.76304H15.462Z" fill="white"/>
</svg>
