<svg width="24" height="24" viewBox="0 0 24 24" fill="none" xmlns="http://www.w3.org/2000/svg">
<g clip-path="url(#clip0_35299_18141)">
<path fill-rule="evenodd" clip-rule="evenodd" d="M8.03263 14.273C8.45956 14.2727 8.86918 14.4417 9.17163 14.743L9.21163 14.785L9.25563 14.828C9.40515 14.9775 9.52376 15.155 9.60468 15.3503C9.6856 15.5457 9.72725 15.7551 9.72725 15.9665C9.72725 16.1779 9.6856 16.3873 9.60468 16.5827C9.52376 16.778 9.40515 16.9555 9.25563 17.105L6.18263 20.178L6.99863 20.994C7.59863 21.594 7.30163 22.621 6.47363 22.808L1.31463 23.973C1.15965 24.0084 0.998728 24.0088 0.843566 23.9742C0.688404 23.9396 0.5429 23.8709 0.417632 23.773L0.315632 23.683C0.186322 23.5547 0.0919083 23.3955 0.0413339 23.2205C-0.00924058 23.0455 -0.014301 22.8605 0.0266319 22.683L1.19063 17.525C1.23324 17.3368 1.32553 17.1635 1.45789 17.0231C1.59025 16.8827 1.75783 16.7804 1.94317 16.7268C2.12852 16.6732 2.32485 16.6702 2.51172 16.7183C2.69858 16.7664 2.86914 16.8636 3.00563 17L3.82163 17.817L6.89563 14.743C7.19759 14.4422 7.6064 14.2732 8.03263 14.273ZM17.0416 13.246C17.0416 12.396 17.9766 11.88 18.6946 12.334L23.1646 15.158C23.5006 15.37 23.6676 15.72 23.6676 16.069C23.6676 16.419 23.5006 16.769 23.1666 16.982L18.6946 19.806C18.5315 19.9088 18.3437 19.9659 18.151 19.9715C17.9582 19.9771 17.7675 19.931 17.5986 19.8379C17.4298 19.7448 17.2889 19.6081 17.1908 19.4421C17.0927 19.2761 17.0408 19.0868 17.0406 18.894V17.739H10.0136C10.3836 17.339 10.6186 16.837 10.6906 16.301L10.7126 16.069C10.7412 15.4732 10.5678 14.8851 10.2206 14.4H17.0416V13.246ZM8.18763 5.61281e-06C8.53763 5.61281e-06 8.88763 0.168006 9.10063 0.503006L11.9236 4.97301C12.0266 5.13612 12.084 5.32386 12.0898 5.51668C12.0955 5.70949 12.0495 5.90033 11.9565 6.06933C11.8635 6.23832 11.7268 6.37928 11.5608 6.47754C11.3948 6.5758 11.2055 6.62776 11.0126 6.62801H9.85663V13.32H8.18663C7.59236 13.2869 7.0044 13.4561 6.51863 13.8V6.62901H5.36463C4.51563 6.62901 3.99863 5.69301 4.45263 4.97501L7.27563 0.503006C7.37236 0.348557 7.50686 0.221317 7.66644 0.133306C7.82602 0.0452939 8.00539 -0.000584034 8.18763 5.61281e-06Z" fill="white"/>
</g>
<defs>
<clipPath id="clip0_35299_18141">
<rect width="24" height="24" fill="white"/>
</clipPath>
</defs>
</svg>
