<svg width="20" height="20" viewBox="0 0 20 20" fill="none" xmlns="http://www.w3.org/2000/svg">
<mask id="mask0_35320_18138" style="mask-type:luminance" maskUnits="userSpaceOnUse" x="2" y="0" width="16" height="20">
<path d="M2.54236 0H17.4576V20H2.54236V0Z" fill="white"/>
</mask>
<g mask="url(#mask0_35320_18138)">
<path d="M2.56018 17.499C5.85103 20.8085 11.1865 20.8085 14.4773 17.499C17.7681 14.1895 17.7681 8.82356 14.4773 5.51407L12.9876 7.0122C15.4558 9.49441 15.4558 13.5186 12.9876 16.0008C10.5195 18.4829 6.51798 18.4829 4.04984 16.0008L2.56018 17.499Z" fill="#00E9A3"/>
<path d="M5.53948 14.5027C7.1849 16.1575 9.85253 16.1575 11.498 14.5027C13.1434 12.848 13.1434 10.1651 11.498 8.51035L10.0085 10.0085C10.8312 10.8358 10.8312 12.1773 10.0085 13.0046C9.8134 13.2012 9.58134 13.3573 9.32567 13.4638C9.07 13.5703 8.79577 13.6251 8.5188 13.6251C8.24183 13.6251 7.9676 13.5703 7.71193 13.4638C7.45626 13.3573 7.2242 13.2012 7.02914 13.0046L5.53948 14.5027Z" fill="#00E9A3"/>
<path d="M17.4566 2.51779C14.1658 -0.791698 8.83033 -0.791698 5.53949 2.51779C2.24864 5.82745 2.24864 11.1932 5.53949 14.5027L7.02898 13.0046C4.56101 10.5224 4.56101 6.49813 7.02898 4.01593C9.49711 1.5339 13.4988 1.5339 15.9669 4.01593L17.4566 2.51779Z" fill="#00E9A3"/>
<path d="M14.4773 5.51407C12.8319 3.85932 10.1641 3.85932 8.51867 5.51407C6.87325 7.16882 6.87325 9.8517 8.51867 11.5064L10.0085 10.0083C9.18562 9.18102 9.18562 7.83966 10.0085 7.01221C10.2036 6.8156 10.4356 6.65955 10.6913 6.55307C10.9469 6.44658 11.2211 6.39175 11.4981 6.39175C11.775 6.39175 12.0492 6.44658 12.3049 6.55307C12.5606 6.65955 12.7926 6.8156 12.9877 7.01221L14.4773 5.51407Z" fill="#00E9A3"/>
<path d="M17.4566 2.51779C14.1657 -0.791698 8.83015 -0.791698 5.5393 2.51779C2.24846 5.82745 2.24846 11.1932 5.5393 14.5027L7.02913 13.0046C4.56083 10.5224 4.56083 6.49813 7.02913 4.01593C9.4971 1.5339 13.4986 1.5339 15.9668 4.01593L17.4566 2.51779Z" fill="white" fill-opacity="0.8"/>
<path d="M14.4773 5.51407C12.8319 3.85932 10.1641 3.85932 8.51867 5.51407C6.87325 7.16882 6.87325 9.8517 8.51867 11.5064L10.0085 10.0083C9.18562 9.18102 9.18562 7.83966 10.0085 7.01221C10.2036 6.8156 10.4356 6.65955 10.6913 6.55307C10.9469 6.44658 11.2211 6.39175 11.4981 6.39175C11.775 6.39175 12.0492 6.44658 12.3049 6.55307C12.5606 6.65955 12.7926 6.8156 12.9877 7.01221L14.4773 5.51407Z" fill="white" fill-opacity="0.8"/>
</g>
</svg>
