<svg width="20" height="20" viewBox="0 0 20 20" fill="none" xmlns="http://www.w3.org/2000/svg">
<g clip-path="url(#clip0_35319_18109)">
<mask id="mask0_35319_18109" style="mask-type:luminance" maskUnits="userSpaceOnUse" x="0" y="0" width="20" height="20">
<path d="M20 0H0V20H20V0Z" fill="white"/>
</mask>
<g mask="url(#mask0_35319_18109)">
<path d="M10 19.2188C15.0914 19.2188 19.2188 15.0914 19.2188 10C19.2188 4.90862 15.0914 0.78125 10 0.78125C4.90862 0.78125 0.78125 4.90862 0.78125 10C0.78125 15.0914 4.90862 19.2188 10 19.2188Z" fill="black" stroke="black" stroke-linecap="round" stroke-linejoin="round"/>
<path d="M13.2875 13.75V6.25Z" fill="black"/>
<path d="M13.2875 13.75V6.25" stroke="url(#paint0_linear_35319_18109)" stroke-miterlimit="1.41421" stroke-linejoin="round"/>
<path fill-rule="evenodd" clip-rule="evenodd" d="M7.49377 6.25109L5.93127 6.25V13.75H7.49377V8.70997L15.4519 18.3845C15.89 18.0991 16.3043 17.7803 16.6913 17.4316L7.49377 6.25109Z" fill="url(#paint1_linear_35319_18109)"/>
</g>
</g>
<defs>
<linearGradient id="paint0_linear_35319_18109" x1="nan" y1="nan" x2="nan" y2="nan" gradientUnits="userSpaceOnUse">
<stop stop-color="white"/>
<stop offset="0.609375" stop-color="white" stop-opacity="0.57"/>
<stop offset="0.796875" stop-color="white" stop-opacity="0"/>
<stop offset="1" stop-color="white" stop-opacity="0"/>
</linearGradient>
<linearGradient id="paint1_linear_35319_18109" x1="12.4219" y1="11.3281" x2="16.9468" y2="16.749" gradientUnits="userSpaceOnUse">
<stop stop-color="white"/>
<stop offset="1" stop-color="white" stop-opacity="0"/>
</linearGradient>
<clipPath id="clip0_35319_18109">
<rect width="20" height="20" fill="white"/>
</clipPath>
</defs>
</svg>
