<svg width="20" height="20" viewBox="0 0 20 20" fill="none" xmlns="http://www.w3.org/2000/svg">
<path d="M11.2623 19.4698C10.7584 20.1065 9.73108 19.7589 9.71936 18.9464L9.54358 7.04794H17.5436C18.9928 7.04794 19.8014 8.71982 18.899 9.85654L11.2623 19.4698Z" fill="url(#paint0_linear_35319_18123)"/>
<path d="M11.2623 19.4698C10.7584 20.1065 9.73108 19.7589 9.71936 18.9464L9.54358 7.04794H17.5436C18.9928 7.04794 19.8014 8.71982 18.899 9.85654L11.2623 19.4698Z" fill="url(#paint1_linear_35319_18123)" fill-opacity="0.2"/>
<path d="M8.01229 0.329191C8.51619 -0.307527 9.54354 0.0401288 9.55525 0.852629L9.63338 12.7472H1.73494C0.285724 12.7472 -0.52287 11.0753 0.379473 9.93857L8.01229 0.329191Z" fill="#3ECF8E"/>
<defs>
<linearGradient id="paint0_linear_35319_18123" x1="8.8994" y1="11.2191" x2="16.0087" y2="14.2007" gradientUnits="userSpaceOnUse">
<stop stop-color="#249361"/>
<stop offset="1" stop-color="#3ECF8E"/>
</linearGradient>
<linearGradient id="paint1_linear_35319_18123" x1="9.24002" y1="3.85728" x2="12.4822" y2="9.96052" gradientUnits="userSpaceOnUse">
<stop/>
<stop offset="1" stop-opacity="0"/>
</linearGradient>
</defs>
</svg>
